<?xml version="1.0"?>
<svg width="1280" height="1088" xmlns="http://www.w3.org/2000/svg" xmlns:svg="http://www.w3.org/2000/svg" preserveAspectRatio="xMidYMid meet">
 <metadata>Created by potrace 1.15, written by Peter Selinger 2001-2017</metadata>
 <g class="layer">
  <title>Layer 1</title>
  <g fill="#000000" id="svg_1" transform="rotate(179.813 682.904 550.668) translate(0 1088) scale(0.1 -0.1)">
   <path d="m6784.212788,9099.550579c-44.121882,-3.429606 -166.984353,-23.321322 -181.917913,-28.808692c-10.860771,-4.115527 -3.393991,-9.602897 39.370295,-30.866456c29.188322,-13.718425 71.952607,-38.41159 94.352947,-54.8737c55.661451,-39.783432 131.008049,-122.093981 160.196371,-174.223996c12.897165,-23.321322 27.151927,-42.527117 31.224716,-42.527117c19.006349,0 94.352947,55.559621 152.729591,113.862927c74.6678,74.079494 126.93526,102.888187 222.645803,123.465824l57.019047,12.346582l-23.079138,9.602897c-67.879818,28.808692 -194.815078,58.303306 -299.349998,69.278046c-61.091836,6.859212 -190.742289,8.231055 -253.191722,2.743685z" id="svg_2"/>
   <path d="m6020.564834,9069.370045c-59.73424,-6.859212 -145.941609,-22.635401 -215.857822,-38.41159c-54.303854,-12.346582 -51.588662,-21.263559 6.109184,-21.94948c50.231065,-0.685921 106.571314,-34.296062 160.196371,-93.97121c24.436735,-28.122771 46.837074,-50.758172 48.873469,-50.758172c2.036395,0.685921 25.794331,26.750929 51.588662,59.675148c52.946258,65.848439 81.455782,87.797919 161.553967,125.523588l55.661451,26.750929l-108.607709,-0.685921c-59.73424,0 -131.686847,-2.743685 -159.517573,-6.173291z" id="svg_3"/>
   <path d="m6329.418006,9012.438581c-50.231065,-12.346582 -106.571314,-37.039747 -143.905214,-65.162518c-33.939909,-24.693165 -124.220067,-136.498328 -124.220067,-152.960437c0,-17.833952 7.46678,-15.090267 38.012698,10.288819c63.807029,54.8737 155.444783,104.260029 267.446483,144.729383c48.194671,17.833952 50.909864,17.833952 59.055442,6.173291c5.430385,-6.859212 8.145578,-16.46211 7.46678,-21.94948c-1.357596,-5.48737 -41.406689,-27.43685 -90.280158,-48.700408c-158.159976,-68.592124 -198.209069,-96.028974 -266.767685,-183.826893c-25.794331,-33.610141 -51.588662,-99.45858 -80.098185,-207.834137c-3.393991,-11.660661 33.939909,-40.469353 50.231065,-40.469353c4.072789,0 44.80068,25.379086 90.280158,55.559621l82.13458,55.559621l17.648753,-17.833952c14.254762,-14.404346 16.969955,-20.577637 10.860771,-30.180535c-12.897165,-21.263559 -95.710544,-79.566864 -172.414738,-121.40806c-41.406689,-22.635401 -82.813378,-46.642645 -90.958956,-52.815936c-8.824376,-6.859212 -46.158276,-56.245542 -82.813378,-109.747399c-52.946258,-78.195022 -86.886167,-117.978454 -164.26916,-195.487555c-97.06814,-97.400817 -97.06814,-97.400817 -118.789682,-157.761886l-21.721542,-60.361069l0.678798,-281.22771c0.678798,-154.33228 3.393991,-302.491269 6.109184,-329.242197c3.393991,-32.92422 1.357596,-71.335809 -6.109184,-122.093981c-6.109184,-40.469353 -10.860771,-100.144502 -10.860771,-131.696879c0,-59.675148 4.751587,-78.195022 50.909864,-188.628342c18.327551,-43.213038 18.327551,-45.956723 10.181973,-96.028974c-4.072789,-28.122771 -16.291156,-89.855683 -26.473129,-137.184249c-16.969955,-77.509101 -19.685147,-85.740156 -33.939909,-87.797919c-8.824376,-1.371842 -23.079138,-0.685921 -31.903515,1.371842c-18.327551,4.801449 -19.006349,-2.057764 11.539569,142.671619c10.860771,51.444093 19.685147,101.516344 19.685147,111.805163c0,9.602897 -12.897165,48.014487 -27.830725,84.368313c-37.3339,87.797919 -44.121882,139.242013 -33.261111,237.32875c4.751587,41.841196 9.503175,105.631872 11.539569,141.985698c3.393991,60.361069 2.036395,67.906203 -13.575964,99.45858c-9.503175,18.519874 -31.224716,49.38633 -48.873469,69.278046c-40.727891,46.642645 -143.905214,124.837666 -216.53662,163.935177c-76.025396,40.469353 -133.044443,51.444093 -272.198071,52.130015c-122.862471,0.685921 -181.239114,-10.97474 -256.585712,-50.758172c-68.558616,-36.353826 -149.3356,-122.779903 -208.391042,-224.982168c-27.151927,-47.328566 -65.843424,-115.234769 -86.886167,-150.902674c-110.644104,-192.057948 -178.523922,-248.30349 -340.077889,-281.22771c-120.826076,-24.693165 -426.285258,-25.379086 -450.721992,-0.685921c-3.393991,3.429606 -4.751587,16.46211 -2.036395,29.494614l4.072789,22.635401l191.421087,0c218.573014,0.685921 267.446483,7.545134 348.902265,48.014487c64.485827,32.238298 97.06814,68.592124 124.898865,141.299776c27.830725,72.707652 33.261111,135.126485 17.648753,207.148216c-17.648753,78.195022 -45.479478,118.664375 -159.517573,231.155459c-112.0017,110.43332 -145.941609,157.761886 -172.414738,238.014672c-21.042744,64.476597 -35.297505,145.415304 -26.473129,154.33228c3.393991,3.429606 16.969955,7.545134 30.545918,10.288819c27.830725,4.115527 24.436735,10.97474 42.085487,-83.682392c6.109184,-32.238298 21.721542,-78.195022 38.012698,-111.119242c24.436735,-50.758172 35.297505,-64.476597 118.789682,-144.043461c139.832425,-133.754643 176.487527,-191.372027 198.209069,-311.408245l12.218367,-64.476597l25.794331,48.014487c76.025396,139.242013 150.014398,229.097696 230.791382,281.22771c40.727891,26.065007 136.438434,65.162518 160.875169,65.162518c21.042744,0 22.40034,16.46211 3.393991,54.187778c-16.969955,32.238298 -17.648753,40.469353 -17.648753,139.242013c0,57.617385 3.393991,153.646359 8.145578,213.321507l8.145578,107.689635l23.079138,0l23.757936,0l-4.751587,-76.823179c-2.036395,-42.527117 -6.109184,-134.440564 -8.145578,-204.404531l-4.072789,-126.89543l23.757936,-44.584881l23.757936,-44.584881l62.449433,-0.685921c139.153627,-2.057764 237.579363,-19.205795 303.422787,-53.501857c53.625056,-26.750929 150.693196,-95.343053 202.281858,-141.985698l47.515873,-43.213038l4.072789,216.065192l3.393991,215.379271l25.794331,77.509101c14.254762,43.213038 24.436735,78.880943 23.079138,79.566864c-30.545918,21.94948 -66.522222,43.213038 -175.808729,100.830423c-150.693196,79.566864 -202.281858,111.805163 -345.508274,219.494798c-80.098185,59.675148 -101.819727,79.566864 -100.462131,90.541604c1.357596,7.545134 6.787982,17.148031 12.897165,20.577637c9.503175,5.48737 27.830725,-4.801449 93.674149,-54.187778c143.905214,-107.003714 212.463831,-152.274516 295.956007,-195.487555c44.80068,-23.321322 120.147278,-63.790676 168.341949,-89.855683l86.207369,-48.014487l23.079138,17.833952c62.449433,47.328566 141.190022,137.184249 213.142629,242.130199c42.085487,61.046991 85.528571,117.978454 96.389342,125.523588c11.539569,8.231055 20.363945,17.148031 20.363945,20.577637c0,11.660661 -152.729591,82.996471 -200.245463,93.285289c-37.3339,8.231055 -128.292856,11.660661 -431.036845,16.46211c-211.106234,3.429606 -401.848523,9.602897 -424.248863,13.718425c-122.183673,20.577637 -255.906914,-6.173291 -400.490927,-80.252786c-50.909864,-26.750929 -72.631405,-43.213038 -130.329251,-102.202265c-38.012698,-38.41159 -73.989002,-78.195022 -80.776984,-88.483841c-13.575964,-21.263559 -12.218367,-23.321322 43.443084,-44.584881c34.618707,-13.032504 37.3339,-13.032504 60.413038,-2.743685c13.575964,6.859212 27.830725,21.263559 34.618707,34.981983c8.824376,19.205795 14.254762,22.635401 33.261111,22.635401c18.327551,0 22.40034,-2.743685 22.40034,-13.718425c0,-45.956723 -64.485827,-102.888187 -116.074489,-102.888187c-11.539569,0 -53.625056,14.404346 -93.674149,32.92422l-71.952607,32.238298l-101.819727,0c-101.819727,0 -102.498525,0 -147.978003,-22.635401c-91.637754,-45.956723 -214.500225,-151.588595 -324.465531,-280.541789c-76.704194,-89.855683 -114.716893,-148.158989 -175.129931,-268.195206c-61.770634,-124.151745 -89.60136,-197.545318 -119.46848,-313.466009c-26.473129,-101.516344 -57.697845,-176.967681 -89.60136,-215.379271l-19.006349,-22.635401l-16.969955,14.404346l-16.969955,13.718425l15.612358,26.065007c34.618707,58.989227 57.019047,114.548848 76.025396,190.686106c11.539569,43.89896 20.363945,86.426077 20.363945,93.97121c0,15.090267 -1.357596,15.090267 -160.875169,-12.346582c-112.680498,-19.205795 -176.487527,-38.41159 -218.573014,-67.906203c-82.813378,-56.245542 -246.40374,-305.920875 -282.380043,-432.130384c-24.436735,-84.368313 -4.072789,-187.2565 50.909864,-257.220467c40.049093,-50.758172 183.275509,-150.216752 217.215418,-150.902674c10.860771,0 70.595011,58.989227 90.958956,89.169762c13.575964,20.577637 13.575964,50.072251 1.357596,116.606612c-5.430385,28.122771 -8.145578,53.501857 -5.430385,56.245542c2.715193,2.057764 15.612358,6.173291 29.188322,8.916976l25.115533,4.801449l14.254762,-67.906203c8.145578,-37.039747 16.291156,-73.393573 17.648753,-81.624628c2.036395,-7.545134 -4.751587,-30.180535 -14.254762,-48.700408c-16.969955,-34.981983 -51.588662,-74.079494 -160.196371,-179.711366c-83.492176,-80.938707 -100.462131,-124.837666 -100.462131,-259.964152c0.678798,-133.068721 23.079138,-213.321507 88.922562,-311.408245c78.061791,-117.292533 190.063491,-231.841381 259.300905,-265.451522c38.012698,-19.205795 190.063491,-55.559621 198.209069,-48.014487c1.357596,2.057764 -6.109184,21.263559 -17.648753,43.89896c-26.473129,54.8737 -35.297505,107.003714 -26.473129,154.33228c4.072789,20.577637 24.436735,88.483841 46.158276,150.902674l38.691496,113.177005l0,109.747399c0,141.299776 -18.327551,223.610326 -79.419387,362.166417c-14.93356,32.92422 -25.794331,65.162518 -24.436735,71.335809c1.357596,6.173291 12.218367,15.776189 24.436735,20.577637c21.042744,8.916976 22.40034,8.231055 35.297505,-13.032504c36.655102,-61.046991 88.243764,-219.494798 105.213718,-324.440749c21.042744,-130.325036 10.181973,-220.180719 -44.121882,-373.827078c-57.019047,-158.447807 -50.909864,-215.379271 31.224716,-307.978639c59.73424,-67.220282 122.183673,-100.144502 322.429136,-171.480311c178.523922,-63.790676 303.422787,-94.657132 327.859521,-81.624628c8.145578,4.115527 55.661451,39.097511 105.892516,77.509101c97.746938,74.079494 240.294556,176.967681 329.217118,236.642829c29.86712,19.891716 63.128231,43.89896 73.310204,52.130015l19.006349,15.776189l-65.164625,30.866456c-95.710544,45.270802 -238.258162,165.992941 -331.932311,281.22771c-84.849773,103.574108 -143.226416,152.960437 -299.349998,251.047175c-160.196371,100.144502 -219.930611,143.35754 -276.949658,199.603082c-55.661451,55.559621 -58.376644,64.476597 -27.151927,85.054234c16.291156,10.97474 16.969955,10.97474 68.558616,-39.097511c63.128231,-60.361069 108.607709,-93.97121 242.330951,-176.967681c56.340249,-34.296062 126.256462,-80.252786 155.444783,-101.516344c62.449433,-45.270802 156.123582,-137.184249 203.639454,-200.974925c18.327551,-24.007244 73.989002,-79.566864 123.541269,-122.779903c92.316553,-80.252786 152.729591,-117.978454 238.258162,-148.84491l41.406689,-14.404346l86.886167,54.187778c116.074489,73.393573 181.239114,104.260029 270.840474,129.639115c41.406689,11.660661 78.061791,22.635401 82.813378,24.007244c5.430385,2.057764 4.072789,12.346582 -4.751587,36.353826c-21.721542,56.931463 -39.370295,135.812406 -67.20102,300.433505c-30.545918,174.909917 -38.012698,240.758357 -48.194671,410.866825c-14.93356,242.81612 -24.436735,281.913631 -112.680498,472.599737c-31.224716,67.220282 -57.019047,129.639115 -57.019047,137.87017c0,11.660661 6.109184,17.833952 21.721542,23.321322c25.794331,9.602897 19.006349,19.205795 85.528571,-122.779903c102.498525,-218.808877 105.213718,-229.783617 131.008049,-607.040301c9.503175,-144.729383 52.946258,-411.552747 88.922562,-548.051074c11.539569,-43.89896 12.897165,-58.303306 6.787982,-74.765416l-7.46678,-20.577637l35.297505,4.801449c167.663151,21.263559 240.294556,20.577637 384.878569,-4.801449c144.584013,-25.379086 378.090587,-14.404346 483.983103,21.94948c54.982653,19.205795 74.6678,31.552377 128.292856,78.880943c27.151927,23.321322 62.449433,50.758172 77.382993,61.046991c23.757936,15.090267 28.509524,21.94948 31.903515,47.328566c2.036395,16.46211 10.181973,52.130015 17.648753,80.252786c19.006349,67.906203 18.327551,126.209509 0,161.877414c-19.006349,35.667905 -60.413038,85.054234 -153.408389,183.140972c-42.085487,43.89896 -76.704194,82.310549 -76.704194,86.426077c0,3.429606 6.109184,11.660661 13.575964,18.519874c13.575964,12.346582 14.93356,12.346582 54.303854,-27.43685c22.40034,-21.94948 42.085487,-38.41159 44.80068,-36.353826c2.036395,2.743685 -10.181973,37.725668 -27.151927,77.509101c-16.969955,40.469353 -31.224716,78.195022 -31.224716,82.996471c0,5.48737 6.109184,9.602897 14.254762,9.602897c10.860771,0 19.685147,-12.346582 40.049093,-56.245542c14.254762,-31.552377 34.618707,-83.682392 44.80068,-116.606612c15.612358,-48.700408 27.151927,-69.963967 61.770634,-113.177005c23.757936,-29.494614 50.909864,-70.649888 61.091836,-91.227525c16.291156,-32.92422 19.006349,-45.270802 17.648753,-92.599368c-0.678798,-34.296062 -7.46678,-77.509101 -18.327551,-115.92069l-16.969955,-60.361069l38.691496,5.48737c21.042744,3.429606 104.53492,6.173291 184.633105,6.173291l145.941609,0l52.26746,25.379086c146.620407,70.649888 277.628456,188.628342 330.574714,296.317977c23.757936,49.38633 38.691496,112.491084 44.80068,196.173476c3.393991,42.527117 10.181973,69.963967 23.757936,101.516344c10.860771,23.321322 21.042744,42.527117 23.079138,42.527117c2.036395,0 14.254762,-5.48737 27.830725,-11.660661c16.969955,-8.231055 23.079138,-15.090267 20.363945,-21.94948c-18.327551,-48.700408 -31.224716,-103.574108 -35.976304,-161.877414c-13.575964,-146.787146 -76.025396,-259.27823 -202.281858,-364.910102c-26.473129,-21.94948 -59.73424,-50.072251 -74.6678,-62.418833l-26.473129,-22.635401l23.757936,4.115527c12.897165,2.743685 71.273809,15.090267 128.971654,28.122771c241.652152,54.8737 298.6712,64.476597 407.278909,69.278046c118.789682,4.115527 215.857822,-6.859212 315.641154,-35.667905c31.903515,-9.602897 63.128231,-17.148031 69.237414,-17.148031c16.969955,0 132.365645,96.714895 232.148978,194.801633c97.06814,96.028974 172.414738,181.76913 265.410089,302.491269c59.055442,77.509101 185.311903,210.577822 219.930611,233.213223c19.006349,13.032504 19.006349,13.032504 31.903515,-4.115527l12.218367,-16.46211l-73.310204,-72.707652c-40.049093,-39.783432 -115.395691,-125.523588 -166.984353,-191.372027c-154.087187,-194.115712 -270.840474,-316.895615 -415.424487,-434.874069c-27.151927,-21.94948 -49.552267,-41.841196 -49.552267,-44.584881c0,-4.115527 97.746938,-65.162518 196.851473,-122.093981c27.830725,-16.46211 57.697845,-29.494614 65.843424,-29.494614c10.860771,0 25.115533,13.032504 50.909864,48.014487c19.685147,26.750929 40.727891,48.014487 46.837074,48.014487c6.109184,0 18.327551,-6.173291 27.151927,-13.032504l16.291156,-13.032504l-13.575964,-26.065007c-19.685147,-37.725668 -91.637754,-111.119242 -114.716893,-116.606612c-24.436735,-6.173291 -44.80068,4.115527 -220.609409,109.061478c-147.978003,87.797919 -190.063491,105.631872 -300.028796,124.837666c-81.455782,14.404346 -226.039794,14.404346 -314.962356,0c-37.3339,-6.173291 -135.080838,-26.065007 -217.215418,-43.89896c-220.609409,-49.38633 -336.0051,-69.278046 -409.994101,-69.278046c-38.012698,0 -177.845123,-36.353826 -240.973354,-63.104754c-96.389342,-39.783432 -191.421087,-107.003714 -300.028796,-212.635586l-55.661451,-54.187778l20.363945,-49.38633c30.545918,-72.707652 32.582313,-141.299776 6.787982,-241.444278c-19.006349,-74.765416 -19.006349,-75.451337 -40.727891,-77.509101c-19.685147,-2.057764 -21.721542,-0.685921 -21.721542,15.776189c0,10.288819 6.787982,43.213038 14.254762,74.079494c18.327551,69.278046 19.685147,140.613855 4.072789,186.570578c-6.787982,19.205795 -25.115533,58.989227 -42.085487,89.169762c-16.969955,29.494614 -30.545918,57.617385 -30.545918,62.418833c0,4.801449 6.109184,12.346582 14.254762,17.148031c12.218367,6.173291 16.969955,4.801449 32.582313,-9.602897l17.648753,-17.833952l67.20102,61.732912c101.140929,92.599368 169.020747,141.985698 253.87052,183.140972c41.406689,19.891716 76.025396,38.41159 76.025396,40.469353c0,6.859212 -92.316553,-3.429606 -131.008049,-15.090267c-38.012698,-10.97474 -72.631405,-34.296062 -157.481178,-106.317793c-78.061791,-66.534361 -188.705894,-94.657132 -400.490927,-100.830423c-113.359296,-3.429606 -139.832425,-2.057764 -217.215418,11.660661c-173.093536,29.494614 -314.962356,24.693165 -484.661901,-17.148031c-121.504874,-30.180535 -171.73594,-54.8737 -375.375394,-185.884657c-255.228116,-163.935177 -530.820178,-364.224181 -624.494327,-454.079864c-53.625056,-51.444093 -57.697845,-66.534361 -90.958956,-315.523772c-9.503175,-70.649888 -19.006349,-139.927934 -21.042744,-154.33228c-5.430385,-39.097511 24.436735,-93.285289 87.564965,-159.81965l53.625056,-56.245542l8.824376,-60.361069c4.751587,-33.610141 13.575964,-72.021731 19.685147,-86.426077c7.46678,-18.519874 9.503175,-39.097511 6.787982,-80.252786c-3.393991,-42.527117 -1.357596,-62.418833 7.46678,-86.426077c23.079138,-61.046991 97.06814,-140.613855 186.6695,-201.660846c76.025396,-51.444093 169.699545,-103.574108 185.311903,-102.202265c8.824376,0.685921 49.552267,-15.090267 90.280158,-34.296062c41.406689,-19.205795 93.674149,-41.841196 115.395691,-49.38633c57.697845,-19.891716 146.620407,-28.808692 211.106234,-20.577637c71.952607,8.916976 131.686847,21.263559 131.686847,26.750929c0,2.057764 -17.648753,15.090267 -38.691496,28.122771c-48.873469,28.808692 -110.644104,87.797919 -137.796031,130.325036c-36.655102,57.617385 -47.515873,102.202265 -47.515873,195.487555c0,107.689635 15.612358,172.166232 80.776984,328.556276c26.473129,63.790676 46.837074,117.292533 46.158276,118.664375c-1.357596,1.371842 -16.969955,-7.545134 -35.297505,-19.891716c-46.158276,-30.866456 -80.776984,-81.624628 -147.299205,-218.808877c-71.273809,-144.043461 -90.280158,-172.166232 -133.723242,-194.115712l-33.261111,-17.148031l-8.824376,20.577637c-6.787982,17.833952 -6.787982,21.94948 1.357596,27.43685c5.430385,3.429606 19.006349,12.346582 31.224716,20.577637c16.969955,10.97474 37.3339,44.584881 96.389342,163.249256c98.425736,194.801633 138.474829,240.758357 247.082538,282.599553l39.370295,15.090267l-57.697845,30.180535c-31.903515,17.148031 -71.273809,42.527117 -88.243764,57.617385c-16.291156,14.404346 -58.376644,41.841196 -93.674149,60.361069c-34.618707,18.519874 -124.220067,67.220282 -198.887867,109.061478c-120.826076,67.220282 -135.759636,77.509101 -133.723242,91.227525c0.678798,8.916976 4.751587,19.205795 8.145578,22.635401c3.393991,3.429606 63.807029,-24.693165 145.941609,-67.220282c77.382993,-40.469353 141.190022,-72.707652 142.547618,-71.335809c1.357596,1.371842 -8.824376,25.379086 -21.721542,53.501857c-23.757936,51.444093 -42.764285,100.144502 -42.764285,109.747399c0,3.429606 9.503175,8.916976 20.363945,13.032504c17.648753,6.173291 21.721542,5.48737 25.115533,-4.801449c13.575964,-37.725668 65.164625,-141.985698 84.170974,-170.79439c92.995351,-137.184249 217.894216,-201.660846 409.994101,-211.949664c81.455782,-4.801449 92.316553,-2.743685 305.459181,52.815936c130.329251,34.296062 145.262811,41.155275 177.166325,82.996471c26.473129,34.981983 58.376644,60.361069 77.382993,60.361069c29.188322,0.685921 27.151927,10.288819 -24.436735,124.151745c-28.509524,61.732912 -55.661451,124.151745 -61.091836,137.87017c-8.145578,24.007244 -8.145578,26.750929 4.751587,33.610141c7.46678,3.429606 18.327551,6.173291 23.757936,4.801449c5.430385,-1.371842 29.188322,-44.584881 52.946258,-98.086738c90.280158,-203.71861 85.528571,-198.917161 209.06984,-216.065192c180.560316,-26.065007 287.131631,-35.667905 327.859521,-30.866456c57.697845,6.173291 120.147278,32.92422 308.853172,132.3828l166.305554,87.111998l4.072789,41.155275c6.109184,64.476597 67.20102,182.455051 173.093536,333.357725c32.582313,46.642645 84.849773,123.465824 115.395691,170.79439c78.061791,118.664375 80.776984,121.40806 95.710544,112.491084c29.188322,-17.833952 16.969955,-42.527117 -134.40204,-259.964152c-47.515873,-67.906203 -99.104534,-144.729383 -114.716893,-171.480311c-41.406689,-68.592124 -88.243764,-167.364784 -88.243764,-187.2565c0,-14.404346 2.036395,-16.46211 19.006349,-12.346582c56.340249,13.032504 94.352947,11.660661 164.26916,-6.173291c93.674149,-24.007244 199.566665,-28.122771 424.927661,-17.833952c188.027096,9.602897 200.924262,11.660661 287.810429,54.187778c66.522222,32.238298 123.541269,89.855683 158.838774,159.133729c31.903515,63.104754 27.151927,57.617385 48.194671,52.130015c23.079138,-6.173291 21.721542,-21.94948 -7.46678,-80.938707c-25.794331,-51.444093 -79.419387,-114.548848 -125.577664,-146.101225c-14.254762,-10.288819 -26.473129,-21.263559 -26.473129,-23.321322c0,-2.743685 16.291156,-10.288819 35.976304,-17.148031c19.006349,-6.859212 71.952607,-33.610141 116.753287,-59.675148c131.686847,-75.451337 139.832425,-78.195022 295.277209,-78.195022c116.074489,0 135.759636,1.371842 158.159976,13.032504c14.254762,6.859212 56.340249,46.642645 95.031745,89.169762c152.729591,168.736626 181.917913,194.115712 303.422787,264.079679c236.900565,135.812406 386.914963,251.733097 513.171425,397.1484c74.6678,86.426077 94.352947,120.722139 148.656802,257.906388c59.055442,150.216752 80.098185,192.74387 166.305554,337.473252c86.207369,144.729383 104.53492,191.372027 100.462131,254.476782c-2.036395,45.956723 -3.393991,48.014487 -99.104534,210.577822c-101.819727,172.852154 -156.123582,275.054419 -150.014398,281.22771c2.036395,2.057764 14.254762,8.231055 27.830725,13.718425l24.436735,10.97474l54.303854,-98.086738c29.86712,-53.501857 86.207369,-152.960437 126.256462,-220.180719c39.370295,-67.906203 75.346598,-134.440564 78.740589,-147.473068c23.079138,-83.682392 -7.46678,-176.28176 -116.753287,-355.307204c-37.3339,-61.046991 -46.837074,-81.624628 -41.406689,-90.541604c7.46678,-12.346582 73.989002,-53.501857 177.845123,-109.747399c55.661451,-29.494614 141.190022,-93.285289 190.063491,-141.299776c12.218367,-12.346582 4.072789,-44.584881 -11.539569,-44.584881c-6.787982,0 -39.370295,23.321322 -72.631405,51.444093c-33.939909,28.122771 -84.849773,64.476597 -114.038094,80.252786c-29.188322,16.46211 -86.886167,48.700408 -128.292856,72.707652c-42.764285,23.321322 -78.740589,39.783432 -82.13458,36.353826c-2.715193,-2.743685 -31.224716,-69.963967 -63.128231,-148.84491c-31.224716,-78.195022 -65.164625,-156.390044 -74.6678,-172.852154c-27.830725,-47.328566 -109.286507,-141.985698 -203.639454,-235.270987c-70.595011,-69.963967 -109.286507,-101.516344 -201.60306,-163.249256c-63.128231,-42.527117 -152.729591,-98.772659 -200.245463,-125.523588c-101.140929,-56.931463 -116.753287,-67.220282 -156.80238,-104.260029c-57.697845,-52.130015 -197.530271,-211.263743 -192.778683,-219.494798c2.715193,-4.115527 25.115533,-39.097511 50.231065,-78.195022c44.121882,-68.592124 67.20102,-127.581351 54.982653,-139.927934c-3.393991,-3.429606 -16.291156,-7.545134 -29.188322,-9.602897c-23.079138,-4.115527 -24.436735,-3.429606 -33.261111,26.065007c-5.430385,15.776189 -27.830725,56.931463 -49.552267,90.541604l-39.370295,61.046991l-52.26746,-4.801449c-196.172674,-15.776189 -283.058842,-11.660661 -363.835825,19.205795c-22.40034,8.916976 -76.704194,37.039747 -119.46848,61.732912c-84.849773,49.38633 -128.292856,65.848439 -175.129931,65.848439l-30.545918,0l4.072789,-34.296062c5.430385,-45.270802 44.80068,-128.267273 75.346598,-157.075965c25.794331,-25.379086 30.545918,-41.841196 14.254762,-55.559621c-34.618707,-28.808692 -109.286507,76.137258 -137.117233,192.057948l-11.539569,49.38633l-163.590362,-5.48737c-89.60136,-3.429606 -213.142629,-5.48737 -274.913263,-4.801449c-97.746938,1.371842 -122.183673,4.115527 -192.099885,21.263559c-116.074489,28.808692 -114.038094,29.494614 -408.636505,-122.779903c-217.894216,-112.491084 -239.615758,-119.350296 -365.87222,-113.862927c-52.946258,2.057764 -150.693196,11.660661 -217.894216,21.263559c-67.20102,9.602897 -145.941609,19.205795 -175.129931,21.94948l-52.946258,4.801449l-57.019047,-61.046991c-31.903515,-33.610141 -59.73424,-67.906203 -61.770634,-76.137258c-4.751587,-18.519874 21.721542,-79.566864 80.098185,-180.397287l42.085487,-72.021731l2.715193,-74.079494l3.393991,-74.765416l21.721542,-9.602897c11.539569,-4.801449 48.194671,-15.776189 80.098185,-24.693165c55.661451,-14.404346 59.055442,-16.46211 59.055442,-34.296062c0,-44.584881 -9.503175,-47.328566 -88.243764,-26.065007c-70.595011,19.205795 -126.256462,46.642645 -135.080838,66.534361c-4.072789,8.916976 -7.46678,48.014487 -7.46678,86.426077l0,69.278046l-47.515873,85.054234c-52.946258,92.599368 -70.595011,133.754643 -78.061791,178.339523c-2.715193,15.776189 -5.430385,28.808692 -6.787982,28.808692c-1.357596,0 -64.485827,-15.776189 -140.511223,-34.296062c-136.438434,-34.981983 -138.474829,-34.981983 -239.615758,-34.296062c-103.856122,1.371842 -164.26916,-8.231055 -183.954307,-28.808692c-10.181973,-10.97474 -73.989002,-158.447807 -106.571314,-246.245727c-35.976304,-98.086738 -47.515873,-159.81965 -44.121882,-241.444278c2.036395,-61.732912 4.751587,-75.451337 24.436735,-117.292533c48.873469,-104.94595 137.117233,-163.249256 361.120632,-238.014672c131.008049,-43.213038 161.553967,-57.617385 224.682198,-106.317793c38.012698,-29.494614 80.776984,-74.079494 80.776984,-84.368313c0,-2.743685 -6.109184,-10.97474 -13.575964,-17.833952c-13.575964,-12.346582 -14.254762,-12.346582 -39.370295,11.660661c-39.370295,37.725668 -96.389342,80.252786 -129.650453,98.086738c-16.969955,8.231055 -81.455782,31.552377 -142.547618,51.444093l-111.322902,35.667905l-48.194671,-14.404346c-143.226416,-41.841196 -272.198071,-45.270802 -384.19977,-8.231055c-35.297505,10.97474 -65.164625,19.205795 -66.522222,17.833952c-3.393991,-3.429606 77.382993,-55.559621 154.765985,-99.45858c169.699545,-97.400817 386.236165,-168.736626 580.372445,-191.372027c33.939909,-4.115527 174.451133,-7.545134 312.247163,-8.231055c238.93696,-0.685921 256.585712,0 366.551018,17.148031c185.311903,28.808692 320.392741,56.931463 397.096936,82.996471c165.626756,56.931463 302.065191,69.963967 590.554418,57.617385c138.474829,-5.48737 252.512923,-6.173291 369.945009,-2.057764c93.674149,3.429606 252.512923,6.173291 352.975054,5.48737c201.60306,-0.685921 183.954307,2.057764 468.370745,-62.418833l115.395691,-26.065007l224.0034,2.057764c191.421087,1.371842 238.258162,-0.685921 322.429136,-12.346582c138.474829,-18.519874 270.161676,-32.238298 400.490927,-41.155275c126.256462,-8.231055 193.457482,-15.776189 302.065191,-32.238298c80.098185,-11.660661 240.973354,-15.090267 318.356347,-6.173291c88.243764,10.288819 107.928911,57.617385 62.449433,151.588595c-25.794331,53.501857 -37.3339,65.848439 -143.905214,149.530831c-84.170974,65.848439 -151.371994,135.126485 -241.652152,249.675333c-33.939909,42.527117 -62.449433,77.509101 -63.807029,77.509101c-0.678798,0 -35.976304,-10.97474 -78.740589,-24.693165c-119.46848,-37.725668 -213.821427,-52.130015 -346.187072,-52.130015l-114.038094,0l27.151927,-30.866456c14.254762,-17.148031 34.618707,-46.642645 44.121882,-65.848439c15.612358,-32.238298 16.969955,-41.841196 16.969955,-126.209509l0,-91.227525l-23.757936,0l-23.757936,0l0,80.938707c0,69.963967 -2.036395,84.368313 -16.291156,114.548848c-21.042744,45.956723 -78.061791,101.516344 -130.329251,127.581351c-48.873469,24.693165 -80.098185,30.180535 -374.696596,63.790676c-493.486278,57.617385 -513.850223,58.303306 -726.314054,41.155275c-84.170974,-6.859212 -175.129931,-9.602897 -245.724942,-7.545134c-120.826076,3.429606 -136.438434,6.859212 -233.506574,53.501857c-25.794331,12.346582 -55.661451,21.94948 -65.843424,21.94948c-23.757936,0 -73.310204,-25.379086 -182.596711,-95.343053c-98.425736,-62.418833 -164.26916,-93.97121 -220.609409,-106.317793c-26.473129,-6.173291 -88.922562,-8.916976 -176.487527,-8.916976c-145.262811,0 -177.166325,4.115527 -337.362696,44.584881c-43.443084,10.97474 -86.886167,19.891716 -96.389342,19.891716c-29.188322,0 -78.740589,-23.321322 -144.584013,-66.534361c-34.618707,-23.321322 -83.492176,-49.38633 -108.607709,-58.303306c-41.406689,-14.404346 -57.019047,-15.776189 -158.159976,-15.090267c-61.770634,0.685921 -124.220067,3.429606 -139.153627,6.859212c-24.436735,6.173291 -27.151927,8.916976 -27.151927,28.808692c0,12.346582 1.357596,22.635401 3.393991,23.321322c2.036395,0.685921 44.80068,-2.743685 95.710544,-8.231055c149.3356,-14.404346 224.0034,3.429606 328.53832,78.880943c88.243764,63.790676 131.686847,69.963967 267.446483,37.725668c152.050793,-35.667905 207.033445,-43.213038 323.107934,-43.213038c59.73424,0 126.93526,3.429606 149.3356,7.545134c49.552267,9.602897 136.438434,52.815936 240.973354,118.664375c96.389342,61.046991 152.729591,88.483841 181.917913,88.483841c12.218367,0 57.019047,-15.090267 98.425736,-33.610141c42.764285,-19.205795 95.031745,-37.725668 120.147278,-41.155275c54.982653,-8.916976 150.014398,-9.602897 251.155327,-0.685921c194.13628,16.46211 269.482878,19.205795 348.902265,13.032504c154.087187,-12.346582 701.198521,-75.451337 769.757137,-88.483841c18.327551,-3.429606 50.231065,-13.718425 70.595011,-22.635401c30.545918,-13.718425 38.012698,-15.090267 43.443084,-7.545134c4.751587,8.231055 16.291156,8.231055 67.20102,2.057764c75.346598,-9.602897 217.894216,-4.115527 294.598411,10.97474c200.245463,39.783432 408.636505,136.498328 655.719043,305.234954l61.091836,41.155275l12.218367,-14.404346c6.787982,-8.231055 10.860771,-18.519874 9.503175,-22.635401c-6.787982,-21.94948 -239.615758,-169.422547 -365.87222,-232.527302c-47.515873,-23.321322 -86.207369,-45.956723 -86.886167,-49.38633c0,-12.346582 86.886167,-118.664375 156.123582,-191.372027c35.297505,-37.039747 104.53492,-99.45858 152.729591,-137.87017c66.522222,-53.501857 93.674149,-79.566864 109.965305,-107.003714c50.231065,-85.054234 57.697845,-149.530831 23.079138,-206.462295l-21.721542,-34.981983l131.008049,4.115527c141.86882,4.115527 207.033445,14.404346 310.889567,50.072251c50.231065,17.833952 57.697845,22.635401 59.73424,37.039747c0.678798,9.602897 9.503175,50.758172 19.006349,91.913447c16.291156,69.963967 16.969955,80.938707 12.218367,192.057948c-2.715193,79.566864 -2.036395,126.209509 3.393991,144.729383c4.072789,15.090267 31.903515,61.046991 61.770634,102.202265c71.952607,99.45858 78.061791,119.350296 77.382993,261.335994c0,93.97121 -2.715193,121.40806 -19.006349,190.686106c-21.042744,91.913447 -54.982653,196.859397 -86.886167,270.938891l-22.40034,50.758172l16.291156,13.032504c15.612358,13.032504 14.93356,13.032504 -95.710544,13.032504c-61.770634,0 -131.008049,2.057764 -154.765985,4.801449l-42.085487,4.115527l4.751587,-43.89896c8.824376,-74.079494 4.751587,-249.675333 -9.503175,-383.429976c-7.46678,-69.963967 -14.93356,-157.761886 -17.648753,-195.487555c-2.036395,-37.725668 -5.430385,-81.624628 -7.46678,-98.086738c-3.393991,-28.808692 -4.751587,-29.494614 -25.115533,-27.43685l-21.721542,2.057764l2.036395,61.732912c0.678798,34.296062 9.503175,143.35754 19.006349,243.502042c20.363945,205.776373 19.685147,365.596023 -0.678798,459.567234c-30.545918,139.927934 -94.352947,285.343238 -176.487527,401.263928c-24.436735,34.296062 -42.764285,65.848439 -40.727891,71.335809c5.430385,13.032504 -7.46678,6.859212 -73.310204,-36.353826c-88.922562,-59.675148 -123.541269,-102.202265 -221.967005,-271.624813c-70.595011,-122.093981 -105.213718,-171.480311 -178.523922,-257.220467c-90.958956,-107.689635 -189.384693,-199.603082 -274.234465,-257.220467c-40.727891,-27.43685 -99.783333,-76.137258 -131.686847,-107.689635c-52.946258,-52.815936 -60.413038,-57.617385 -73.310204,-50.758172c-7.46678,4.801449 -14.254762,12.346582 -14.254762,17.833952c0,13.718425 75.346598,99.45858 109.965305,124.837666c16.291156,12.346582 51.588662,37.039747 78.740589,55.559621c160.875169,109.061478 308.853172,278.484025 443.93401,506.209878c108.607709,184.512815 133.044443,214.007428 244.367345,288.086923c252.512923,169.422547 371.302605,306.606796 402.527321,463.682761c17.648753,91.227525 14.254762,120.036218 -27.151927,241.444278c-40.727891,117.292533 -57.019047,183.826893 -74.6678,302.491269c-29.188322,200.974925 -77.382993,413.61051 -122.183673,545.307389c-107.250113,312.094166 -270.161676,468.48421 -554.578114,532.274885c-90.280158,20.577637 -288.489227,9.602897 -321.07154,-17.833952c-4.072789,-3.429606 -19.685147,-28.808692 -34.618707,-55.559621c-31.224716,-58.303306 -114.038094,-151.588595 -128.971654,-145.415304c-5.430385,2.057764 -12.897165,9.602897 -16.969955,17.148031c-6.109184,10.97474 -1.357596,19.205795 28.509524,52.130015c46.158276,51.444093 76.025396,97.400817 98.425736,152.274516c25.115533,61.732912 25.115533,104.260029 -0.678798,147.473068c-40.727891,71.335809 -194.815078,211.949664 -488.055892,445.848809c-69.916213,56.245542 -128.971654,106.317793 -131.008049,111.119242c-2.036395,5.48737 2.036395,15.776189 8.145578,22.635401c14.93356,17.148031 11.539569,19.205795 142.547618,-84.368313c283.73764,-224.982168 444.612809,-371.083393 502.989452,-457.50947c28.509524,-42.527117 31.903515,-51.444093 35.297505,-96.028974c2.715193,-37.039747 5.430385,-48.014487 12.218367,-45.270802c27.151927,10.288819 137.117233,19.205795 199.566665,15.776189c158.838774,-8.916976 311.568365,-66.534361 428.321652,-161.191492c109.286507,-88.483841 179.20272,-191.372027 247.761336,-363.538259c61.091836,-152.274516 71.273809,-166.678862 485.340699,-694.152299c48.873469,-62.418833 113.359296,-150.216752 143.226416,-194.801633c40.727891,-61.046991 60.413038,-85.054234 78.740589,-94.657132c13.575964,-6.859212 52.946258,-39.097511 87.564965,-72.021731c57.697845,-56.245542 63.128231,-63.790676 76.025396,-107.003714c7.46678,-26.065007 17.648753,-75.451337 21.721542,-109.747399c9.503175,-76.137258 4.072789,-252.419018 -10.860771,-353.935362l-10.181973,-71.335809l47.515873,-107.003714c26.473129,-58.989227 53.625056,-114.548848 61.091836,-124.151745l13.575964,-17.148031l0,30.866456c0,102.202265 -23.757936,373.827078 -44.80068,500.722508c-39.370295,238.700593 -112.0017,436.931833 -198.887867,541.191862c-32.582313,39.097511 -41.406689,56.931463 -50.909864,93.97121c-16.291156,63.790676 -59.73424,172.852154 -100.462131,249.675333c-73.310204,139.242013 -150.693196,231.841381 -231.47018,277.112183c-25.115533,14.404346 -50.231065,32.92422 -55.661451,41.155275c-5.430385,8.231055 -12.897165,49.38633 -16.969955,91.913447c-12.218367,134.440564 -33.261111,212.635586 -86.207369,320.325221c-84.849773,174.223996 -260.658502,355.993126 -455.47358,469.170131c-33.939909,19.891716 -63.128231,41.155275 -65.164625,48.014487c-1.357596,6.173291 -5.430385,21.94948 -7.46678,34.981983c-10.860771,54.8737 -62.449433,132.3828 -154.087187,231.841381c-31.224716,33.610141 -79.419387,92.599368 -107.250113,131.696879c-208.391042,288.772844 -588.518023,510.325406 -1091.507475,635.163072c-81.455782,19.891716 -158.159976,44.584881 -216.53662,68.592124c-109.286507,45.270802 -224.682198,79.566864 -347.544669,102.888187c-78.740589,15.090267 -121.504874,18.519874 -292.562016,23.321322c-109.965305,3.429606 -221.288207,8.231055 -247.761336,10.288819c-53.625056,5.48737 -103.177324,-2.057764 -162.232765,-24.693165c-32.582313,-11.660661 -54.982653,-28.808692 -116.753287,-87.797919c-42.085487,-40.469353 -97.06814,-85.054234 -121.504874,-100.144502c-24.436735,-14.404346 -46.158276,-28.808692 -48.194671,-31.552377c-6.109184,-10.288819 57.019047,-127.581351 78.740589,-146.101225c11.539569,-9.602897 23.757936,-17.833952 26.473129,-17.833952c2.715193,0 11.539569,9.602897 20.363945,21.263559c61.770634,84.368313 162.232765,165.992941 236.221767,192.057948c44.80068,15.776189 219.930611,54.187778 248.440134,54.187778c16.291156,0 19.006349,-2.743685 16.969955,-15.090267c-2.036395,-14.404346 -10.860771,-17.833952 -109.286507,-37.725668c-124.898865,-24.693165 -170.378343,-40.469353 -227.397391,-78.195022c-39.370295,-26.065007 -92.995351,-78.880943 -123.541269,-122.779903l-14.254762,-19.891716l15.612358,-3.429606c8.824376,-1.371842 67.879818,-7.545134 131.008049,-13.718425c63.807029,-5.48737 133.723242,-15.090267 156.123582,-21.263559c61.091836,-15.776189 128.971654,-51.444093 196.851473,-102.202265l60.413038,-45.270802l59.055442,0c78.740589,0 80.776984,2.057764 118.110884,143.35754c12.897165,49.38633 29.86712,102.202265 37.3339,117.292533c34.618707,68.592124 220.609409,171.480311 308.853172,171.480311c20.363945,0 69.237414,-17.833952 177.166325,-64.476597c188.027096,-80.938707 255.228116,-106.317793 384.19977,-144.043461c117.432085,-34.981983 185.311903,-62.418833 297.313603,-122.093981c164.947958,-87.111998 297.992401,-190.000185 333.968705,-257.220467c19.006349,-34.981983 32.582313,-95.343053 32.582313,-143.35754l0,-29.494614l49.552267,-24.693165c179.881518,-92.599368 331.253512,-229.783617 562.723692,-511.011327c38.691496,-47.328566 99.783333,-120.036218 135.759636,-161.877414c35.297505,-41.841196 82.813378,-102.202265 104.53492,-133.754643c22.40034,-31.552377 54.303854,-72.707652 72.631405,-91.913447c17.648753,-18.519874 31.903515,-34.981983 31.903515,-36.353826c0,-10.97474 -25.115533,-42.527117 -33.939909,-42.527117c-15.612358,0 -72.631405,61.732912 -127.614058,138.556091c-26.473129,36.353826 -76.704194,99.45858 -111.322902,139.927934c-34.618707,40.469353 -97.746938,115.92069 -139.832425,166.678862c-99.783333,121.40806 -213.821427,243.502042 -286.452832,307.978639c-64.485827,56.931463 -197.530271,148.84491 -244.367345,168.736626c-16.969955,7.545134 -56.340249,24.693165 -88.243764,39.097511c-73.310204,32.92422 -113.359296,44.584881 -211.106234,61.046991c-118.110884,20.577637 -137.117233,28.808692 -314.962356,135.812406c-133.044443,80.252786 -192.099885,107.689635 -272.876869,128.953194c-179.20272,45.956723 -403.884918,33.610141 -703.913714,-38.41159c-47.515873,-10.97474 -94.352947,-20.577637 -104.53492,-20.577637c-15.612358,0 -22.40034,-7.545134 -48.194671,-53.501857c-92.995351,-164.621099 -234.864171,-361.480496 -325.823127,-451.336179l-49.552267,-48.700408l24.436735,-62.418833c36.655102,-92.599368 38.012698,-122.779903 8.145578,-242.130199c-13.575964,-55.559621 -27.151927,-131.696879 -30.545918,-174.223996c-6.787982,-74.765416 -6.109184,-75.451337 12.897165,-120.036218c18.327551,-40.469353 19.006349,-45.270802 8.824376,-52.815936c-6.109184,-4.801449 -15.612358,-8.916976 -20.363945,-8.916976c-11.539569,0 -40.049093,44.584881 -49.552267,79.566864c-11.539569,39.097511 1.357596,177.653602 23.757936,261.335994c35.976304,137.184249 35.297505,165.30702 -12.897165,270.25297l-23.757936,52.815936l-66.522222,35.667905c-96.389342,52.815936 -204.997051,116.606612 -209.748638,124.151745c-6.787982,11.660661 3.393991,40.469353 14.254762,40.469353c6.109184,0 47.515873,-21.94948 92.995351,-48.700408c99.104534,-58.303306 184.633105,-102.202265 198.209069,-102.202265c16.969955,0 95.031745,78.195022 148.656802,149.530831c52.946258,69.963967 177.166325,257.906388 214.500225,325.12667c12.218367,21.94948 19.685147,43.213038 16.969955,47.328566c-9.503175,16.46211 -150.693196,117.292533 -191.421087,137.184249c-23.079138,10.97474 -58.376644,24.007244 -78.061791,28.122771l-36.655102,7.545134l-73.989002,-39.783432c-40.727891,-21.94948 -136.438434,-76.137258 -213.142629,-120.036218c-76.704194,-43.89896 -169.699545,-96.028974 -207.712243,-115.234769c-63.128231,-32.92422 -75.346598,-43.213038 -163.590362,-133.754643c-103.856122,-106.317793 -127.614058,-143.35754 -170.378343,-266.823364c-35.976304,-102.202265 -44.121882,-163.935177 -40.049093,-297.003899c4.751587,-128.953194 14.93356,-190.686106 56.340249,-330.61404c25.115533,-83.682392 25.794331,-86.426077 12.897165,-95.343053c-21.721542,-16.46211 -40.727891,-10.97474 -62.449433,16.46211c-10.860771,13.718425 -23.757936,32.92422 -28.509524,41.841196c-4.751587,8.916976 -33.261111,48.700408 -62.449433,89.169762c-50.909864,69.278046 -101.140929,168.736626 -101.140929,200.289003c0,11.660661 18.327551,26.750929 32.582313,26.750929c2.715193,0 14.254762,-20.577637 24.436735,-45.956723c23.757936,-58.989227 60.413038,-125.523588 77.382993,-141.299776c12.897165,-11.660661 12.897165,-10.97474 6.787982,24.007244c-2.715193,19.891716 -10.181973,76.823179 -16.291156,125.523588c-8.824376,75.451337 -12.897165,91.913447 -25.794331,106.317793c-8.824376,9.602897 -22.40034,30.180535 -30.545918,45.956723c-16.291156,32.92422 -21.042744,36.353826 -90.280158,61.046991c-59.055442,21.263559 -92.995351,39.783432 -163.590362,90.541604c-54.303854,39.783432 -63.128231,56.245542 -37.3339,72.707652c9.503175,5.48737 23.079138,-1.371842 71.273809,-34.981983c32.582313,-22.635401 75.346598,-49.38633 93.674149,-58.303306c38.012698,-19.205795 111.322902,-42.527117 116.753287,-37.039747c6.109184,6.173291 -56.340249,100.830423 -122.862471,185.884657c-35.297505,45.270802 -72.631405,93.97121 -83.492176,109.061478c-18.327551,25.379086 -18.327551,26.750929 -5.430385,35.667905c7.46678,5.48737 17.648753,8.916976 23.757936,8.231055c14.254762,-2.743685 126.256462,-144.043461 193.457482,-244.873884l57.019047,-84.368313l6.787982,29.494614c16.969955,69.963967 52.26746,171.480311 80.098185,231.155459c27.830725,59.675148 37.3339,72.021731 147.978003,187.942421c123.541269,128.953194 158.838774,174.909917 173.093536,222.924404c14.254762,46.642645 7.46678,56.931463 -80.776984,124.837666c-44.80068,34.296062 -106.571314,84.368313 -137.796031,111.119242c-35.976304,30.866456 -79.419387,59.675148 -119.46848,79.566864c-33.939909,17.148031 -63.807029,33.610141 -65.843424,36.353826c-2.036395,3.429606 1.357596,17.148031 8.145578,30.180535c13.575964,29.494614 12.897165,29.494614 98.425736,-13.718425c33.939909,-17.148031 84.170974,-51.444093 118.789682,-80.252786c32.582313,-28.122771 93.674149,-76.823179 134.40204,-109.061478c96.389342,-76.137258 105.213718,-86.426077 114.716893,-131.696879l7.46678,-38.41159l49.552267,61.732912c27.151927,33.610141 54.303854,70.649888 61.091836,82.310549c10.860771,19.891716 10.860771,21.263559 0,28.122771c-39.370295,22.635401 -57.019047,48.014487 -114.716893,168.050705c-33.261111,68.592124 -73.989002,143.35754 -90.280158,165.992941c-52.26746,72.021731 -151.371994,142.671619 -241.652152,172.852154c-57.019047,19.205795 -175.129931,24.693165 -234.185372,10.97474zm1958.332752,-1075.524511c0,-4.115527 -25.794331,-34.981983 -57.697845,-69.278046c-60.413038,-65.162518 -91.637754,-117.292533 -91.637754,-150.216752c0,-10.288819 4.751587,-47.328566 10.860771,-80.938707c16.291156,-99.45858 0,-177.653602 -69.237414,-328.556276c-16.291156,-35.667905 -29.86712,-65.848439 -29.86712,-67.220282c0,-2.057764 38.012698,33.610141 84.170974,78.195022c138.474829,134.440564 188.705894,153.646359 404.563716,155.018201c105.892516,0.685921 139.832425,-1.371842 169.699545,-10.97474c121.504874,-37.039747 254.549318,-172.166232 333.289907,-338.845095c51.588662,-109.747399 80.098185,-211.263743 112.680498,-401.263928l5.430385,-32.92422l54.303854,41.841196c63.807029,49.38633 105.892516,70.649888 164.947958,82.310549c36.655102,7.545134 44.121882,7.545134 48.873469,-0.685921c17.648753,-28.122771 6.787982,-37.039747 -71.952607,-58.303306c-31.903515,-8.916976 -57.697845,-24.007244 -118.789682,-70.649888c-80.776984,-62.418833 -92.995351,-79.566864 -71.273809,-103.574108c11.539569,-13.032504 43.443084,-24.007244 90.280158,-31.552377c34.618707,-5.48737 38.691496,-10.288819 32.582313,-42.527117l-4.072789,-24.693165l-44.121882,4.115527c-51.588662,4.115527 -111.322902,30.866456 -131.686847,59.675148c-10.860771,15.090267 -13.575964,30.180535 -13.575964,69.963967c0,27.43685 -4.751587,81.624628 -10.181973,120.722139c-35.297505,250.361254 -120.826076,444.476966 -250.476529,568.628711c-97.06814,93.97121 -141.190022,108.375557 -319.713943,102.888187c-183.954307,-4.801449 -208.391042,-15.090267 -340.756687,-142.671619c-97.746938,-95.343053 -139.153627,-127.581351 -196.851473,-156.390044c-44.80068,-22.635401 -224.0034,-78.195022 -232.827776,-72.707652c-6.787982,4.115527 -23.079138,51.444093 -19.006349,54.8737c1.357596,1.371842 42.085487,14.404346 90.958956,29.494614c48.873469,15.090267 95.710544,30.866456 103.856122,34.981983c33.939909,18.519874 130.329251,193.429791 164.947958,299.061662c16.969955,52.815936 19.685147,120.036218 9.503175,234.585066c-6.109184,61.046991 -5.430385,64.476597 12.897165,102.888187c13.575964,26.750929 40.727891,61.732912 86.207369,107.689635c65.164625,67.220282 66.522222,67.906203 80.098185,55.559621c7.46678,-6.859212 13.575964,-15.090267 13.575964,-18.519874zm-2189.802932,-2715.562206c31.903515,-34.981983 36.655102,-43.213038 31.224716,-54.187778c-10.181973,-19.891716 -31.224716,-29.494614 -46.158276,-21.263559c-11.539569,6.173291 -52.946258,53.501857 -65.164625,74.765416c-6.109184,10.288819 19.685147,42.527117 33.939909,42.527117c4.072789,0 25.115533,-18.519874 46.158276,-41.841196zm935.383894,-335.415488c4.751587,0 5.430385,-24.693165 2.036395,-74.765416c-6.109184,-99.45858 2.715193,-131.010958 60.413038,-209.891901c24.436735,-32.92422 42.764285,-63.104754 40.727891,-68.592124c-5.430385,-14.404346 -29.188322,-19.891716 -40.727891,-9.602897c-21.721542,18.519874 -71.952607,89.855683 -89.60136,127.581351c-16.969955,36.353826 -18.327551,46.642645 -18.327551,125.523588c0,89.855683 8.145578,121.40806 28.509524,113.862927c5.430385,-2.057764 12.897165,-4.115527 16.969955,-4.115527zm-2356.108487,-799.784171c112.0017,-78.195022 223.324602,-165.30702 223.324602,-174.223996c0,-2.743685 -4.072789,-8.916976 -9.503175,-13.032504c-7.46678,-6.173291 -27.151927,5.48737 -93.674149,55.559621c-46.158276,34.981983 -121.504874,89.855683 -166.984353,121.40806c-76.704194,52.815936 -90.280158,66.534361 -78.061791,78.195022c9.503175,10.288819 24.436735,2.057764 124.898865,-67.906203z" id="svg_4"/>
   <path d="m5626.861889,8976.770677c-44.121882,-17.148031 -44.121882,-17.148031 -148.656802,-8.916976c-194.815078,15.090267 -375.375394,0.685921 -557.293307,-44.584881c-245.724942,-61.732912 -491.449883,-192.057948 -668.616208,-354.621283c-34.618707,-31.552377 -48.873469,-40.469353 -65.843424,-40.469353c-26.473129,0 -90.958956,-24.693165 -173.093536,-65.848439c-136.438434,-67.906203 -221.967005,-136.498328 -419.497276,-336.787331l-135.759636,-137.87017l-54.303854,-17.148031c-29.86712,-9.602897 -71.273809,-21.94948 -91.637754,-28.122771c-33.261111,-9.602897 -48.873469,-21.263559 -135.759636,-103.574108c-54.303854,-51.444093 -125.577664,-112.491084 -158.159976,-135.126485c-69.916213,-48.700408 -151.371994,-133.754643 -204.318253,-214.007428c-45.479478,-67.906203 -116.753287,-215.379271 -146.620407,-303.863111c-12.218367,-34.981983 -35.297505,-87.797919 -52.26746,-116.606612c-74.6678,-131.010958 -105.892516,-209.891901 -117.432085,-296.317977c-8.824376,-63.104754 -0.678798,-122.779903 21.042744,-167.364784l13.575964,-26.750929l42.085487,44.584881c23.079138,24.693165 46.837074,45.956723 52.26746,47.328566c7.46678,2.743685 6.109184,10.97474 -10.181973,47.328566c-15.612358,36.353826 -19.685147,55.559621 -22.40034,113.177005c-1.357596,39.783432 0.678798,85.740156 5.430385,108.375557c16.291156,81.624628 125.577664,271.624813 222.645803,388.231424c53.625056,65.162518 94.352947,96.028974 152.729591,115.92069c57.697845,19.891716 181.239114,46.642645 261.3373,56.245542c44.121882,5.48737 75.346598,12.346582 82.813378,19.205795c6.787982,6.173291 29.188322,48.014487 49.552267,93.285289c44.80068,100.830423 97.746938,197.545318 139.153627,257.220467c109.286507,155.704122 308.853172,341.58878 428.321652,399.206164c42.764285,20.577637 49.552267,21.94948 164.947958,26.750929c65.843424,2.743685 125.577664,8.231055 133.044443,12.346582c6.787982,3.429606 41.406689,38.41159 76.025396,76.137258c71.273809,78.195022 96.389342,97.400817 181.917913,140.613855c76.704194,38.41159 138.474829,60.361069 221.967005,78.880943c57.019047,12.346582 79.419387,14.404346 139.832425,10.288819l71.952607,-4.115527l4.751587,56.931463c6.787982,80.252786 34.618707,137.184249 61.770634,126.209509c18.327551,-6.859212 19.685147,-25.379086 4.072789,-56.245542c-10.860771,-22.635401 -14.254762,-43.213038 -14.254762,-80.938707l0,-50.072251l31.224716,-4.801449c17.648753,-2.057764 133.044443,-4.115527 256.585712,-4.115527c269.482878,-0.685921 460.903965,-8.916976 522.674599,-23.321322c25.115533,-6.173291 69.237414,-21.94948 97.746938,-34.981983c27.830725,-13.718425 53.625056,-21.94948 56.340249,-19.205795c2.715193,3.429606 15.612358,41.155275 29.188322,84.368313c13.575964,43.213038 31.903515,90.541604 41.406689,104.260029c19.685147,29.494614 20.363945,28.808692 -25.794331,98.086738c-40.049093,60.361069 -110.644104,131.696879 -139.832425,141.299776c-13.575964,4.801449 -51.588662,10.288819 -85.528571,12.346582c-57.019047,4.115527 -61.091836,5.48737 -63.128231,19.891716c-2.715193,19.891716 -19.685147,19.205795 -76.025396,-2.743685z" id="svg_5"/>
   <path d="m8135.021168,8731.896793c-78.740589,-26.065007 -191.421087,-95.343053 -213.142629,-131.010958c-7.46678,-12.346582 -24.436735,-63.104754 -37.3339,-112.491084c-13.575964,-49.38633 -28.509524,-100.830423 -33.939909,-114.548848c-12.218367,-29.494614 -15.612358,-29.494614 85.528571,-7.545134c137.117233,29.494614 192.099885,34.981983 351.617458,34.981983c164.947958,0 204.997051,-4.801449 306.816778,-38.41159c73.310204,-24.007244 126.93526,-51.444093 265.410089,-135.126485c136.438434,-82.310549 164.26916,-93.285289 288.489227,-117.978454c54.982653,-10.97474 122.183673,-27.43685 150.014398,-37.039747c27.830725,-9.602897 52.26746,-17.833952 53.625056,-17.833952c8.824376,0 -5.430385,89.855683 -17.648753,113.177005c-37.3339,73.393573 -161.553967,166.678862 -348.223467,261.335994c-109.965305,55.559621 -146.620407,69.278046 -280.343649,108.375557c-109.965305,32.238298 -169.699545,55.559621 -372.660201,142.671619c-70.595011,30.180535 -137.796031,55.559621 -149.3356,57.617385c-12.218367,1.371842 -33.939909,-1.371842 -48.873469,-6.173291z" id="svg_6"/>
   <path d="m3958.37596,8507.600546c-88.243764,-32.238298 -204.997051,-107.689635 -333.289907,-217.437034c-67.879818,-58.303306 -253.191722,-246.931648 -266.088887,-270.938891c-6.109184,-10.97474 -4.072789,-10.97474 25.794331,-2.057764c18.327551,5.48737 35.297505,10.288819 38.691496,10.288819c3.393991,0 70.595011,65.848439 149.3356,146.101225c175.129931,179.025445 253.87052,244.187963 386.236165,319.6393c21.042744,12.346582 38.691496,23.321322 38.691496,25.379086c0,1.371842 -0.678798,2.743685 -1.357596,2.057764c-1.357596,0 -18.327551,-6.173291 -38.012698,-13.032504z" id="svg_7"/>
   <path d="m7021.792151,8421.174469c-22.40034,-29.494614 -69.237414,-87.111998 -103.856122,-127.581351c-34.618707,-41.155275 -60.413038,-74.079494 -57.697845,-74.079494c3.393991,0 57.697845,29.494614 120.826076,65.848439c63.807029,36.353826 154.087187,87.797919 201.60306,114.548848c48.194671,27.43685 86.886167,51.444093 86.886167,53.501857c0,4.801449 -46.837074,10.97474 -139.153627,17.148031l-67.879818,4.801449l-40.727891,-54.187778z" id="svg_8"/>
   <path d="m10256.265484,6722.833468c0,-4.801449 6.109184,-36.353826 13.575964,-70.649888c7.46678,-33.610141 25.794331,-135.126485 40.727891,-225.668089c31.903515,-193.429791 36.655102,-212.635586 85.528571,-352.56352c35.976304,-102.888187 37.3339,-109.747399 33.261111,-155.704122c-10.181973,-115.92069 -40.727891,-202.346767 -101.140929,-287.401001c-33.939909,-48.014487 -126.93526,-140.613855 -199.566665,-199.603082l-49.552267,-39.783432l23.757936,-24.693165c63.128231,-66.534361 139.153627,-207.834137 187.348298,-347.07615c36.655102,-107.003714 22.40034,-100.144502 207.033445,-100.830423c117.432085,-1.371842 139.832425,0.685921 247.761336,20.577637c65.164625,11.660661 137.117233,22.635401 159.517573,23.321322c38.012698,2.057764 40.727891,1.371842 42.764285,-14.404346c1.357596,-8.916976 0,-18.519874 -3.393991,-21.94948c-3.393991,-3.429606 -64.485827,-15.776189 -135.759636,-27.43685c-71.273809,-12.346582 -133.723242,-24.007244 -137.796031,-26.750929c-6.109184,-3.429606 -5.430385,-10.288819 2.715193,-26.065007c21.042744,-41.841196 56.340249,-135.812406 77.382993,-207.148216c33.261111,-114.548848 48.873469,-205.090452 53.625056,-314.15193l4.072789,-100.144502l33.939909,37.039747c54.303854,59.675148 82.813378,101.516344 128.971654,189.314263c44.121882,83.682392 103.177324,177.653602 121.504874,193.429791c7.46678,6.173291 12.897165,5.48737 24.436735,-2.743685c8.145578,-5.48737 14.93356,-13.032504 14.93356,-15.776189c0,-3.429606 -15.612358,-30.180535 -35.297505,-59.675148c-19.006349,-29.494614 -57.697845,-94.657132 -84.849773,-145.415304c-48.873469,-89.855683 -91.637754,-152.960437 -126.93526,-185.884657c-9.503175,-9.602897 -17.648753,-19.205795 -17.648753,-21.94948c0,-2.743685 29.86712,-37.725668 66.522222,-77.509101c48.873469,-52.815936 69.237414,-80.938707 75.346598,-101.516344l8.824376,-29.494614l13.575964,26.750929c25.115533,49.38633 71.952607,205.776373 92.995351,309.350481c29.86712,148.158989 41.406689,249.675333 46.158276,397.834322l3.393991,130.325036l-21.042744,61.732912c-11.539569,34.296062 -43.443084,107.689635 -70.595011,163.935177c-54.982653,115.234769 -62.449433,115.234769 -42.085487,3.429606c13.575964,-74.079494 11.539569,-88.483841 -12.218367,-88.483841c-14.254762,0 -18.327551,5.48737 -28.509524,43.213038c-19.685147,68.592124 -21.042744,158.447807 -4.072789,268.881128c36.655102,238.700593 29.188322,469.170131 -17.648753,539.134098c-6.787982,9.602897 -31.903515,35.667905 -56.340249,56.931463c-42.085487,38.41159 -44.121882,39.097511 -48.194671,24.007244c-2.715193,-8.916976 -4.751587,-37.039747 -5.430385,-61.732912c-0.678798,-63.790676 -18.327551,-157.075965 -42.085487,-227.039932c-30.545918,-89.855683 -46.837074,-172.852154 -46.837074,-240.072435c0,-58.989227 -0.678798,-60.361069 -17.648753,-64.476597c-9.503175,-2.743685 -20.363945,-1.371842 -25.115533,3.429606c-22.40034,22.635401 -4.072789,179.711366 33.261111,290.830608c29.86712,86.426077 43.443084,157.075965 48.194671,242.81612l4.072789,83.682392l-21.721542,45.270802c-29.188322,58.989227 -99.104534,155.018201 -303.422787,414.982353c-92.995351,118.664375 -183.954307,235.270987 -201.60306,259.27823c-33.939909,43.89896 -38.691496,48.700408 -38.691496,34.296062z" id="svg_9"/>
   <path d="m2625.216332,6608.28462c-8.824376,-7.545134 -23.757936,-28.122771 -33.261111,-46.642645c-8.824376,-17.833952 -29.188322,-54.187778 -44.80068,-80.938707c-87.564965,-148.158989 -84.170974,-299.061662 11.539569,-500.722508c49.552267,-104.94595 107.928911,-191.372027 190.742289,-281.913631c26.473129,-29.494614 40.049093,-50.758172 44.80068,-72.021731c29.86712,-120.722139 38.012698,-150.216752 57.019047,-195.487555c54.303854,-131.696879 186.6695,-284.657316 327.859521,-378.628527c136.438434,-91.227525 302.743989,-167.364784 472.443534,-217.437034c82.813378,-24.007244 289.846823,-69.278046 295.277209,-64.476597c4.751587,4.801449 35.976304,283.285474 32.582313,291.516529c-2.036395,4.801449 -25.115533,19.891716 -51.588662,33.610141l-48.873469,25.379086l-38.012698,-37.039747c-56.340249,-54.187778 -114.716893,-83.682392 -165.626756,-84.368313c-54.982653,0 -63.128231,4.115527 -59.055442,30.180535c2.715193,21.263559 3.393991,21.263559 44.121882,21.263559c27.830725,0 50.909864,4.801449 70.595011,14.404346c29.86712,14.404346 97.06814,71.335809 97.06814,82.310549c0,3.429606 -19.685147,28.122771 -44.121882,54.8737c-24.436735,26.065007 -58.376644,67.906203 -76.025396,92.599368c-31.224716,41.841196 -35.297505,45.270802 -93.674149,67.906203c-33.261111,13.032504 -84.849773,37.725668 -113.359296,55.559621c-62.449433,37.039747 -50.909864,39.097511 -201.60306,-31.552377c-128.292856,-60.361069 -169.020747,-71.335809 -248.440134,-65.848439c-33.261111,2.057764 -76.025396,7.545134 -95.031745,13.032504c-31.903515,8.231055 -33.939909,9.602897 -31.903515,28.808692c1.357596,10.97474 3.393991,21.94948 4.751587,23.321322c1.357596,1.371842 22.40034,-1.371842 46.158276,-5.48737c61.770634,-10.97474 145.941609,-9.602897 188.705894,3.429606c52.946258,15.776189 177.845123,76.823179 173.093536,84.368313c-2.036395,3.429606 -26.473129,10.288819 -53.625056,14.404346c-68.558616,11.660661 -145.941609,37.725668 -178.523922,59.675148c-84.849773,58.303306 -173.772334,156.390044 -254.549318,279.169946c-65.164625,98.772659 -84.170974,154.33228 -95.031745,270.25297c-14.93356,168.736626 8.824376,268.881128 82.813378,347.762071c18.327551,19.891716 33.261111,38.41159 33.261111,41.841196c-0.678798,3.429606 -25.794331,21.263559 -57.019047,39.783432c-31.224716,17.833952 -74.6678,48.014487 -96.389342,66.534361c-44.121882,37.039747 -65.843424,41.841196 -92.316553,20.577637z" fill="black" id="svg_10"/>
   <path d="m3806.325167,5272.110037c18.327551,-25.379086 45.479478,-50.072251 82.813378,-75.451337c28.509524,-19.205795 97.746938,-56.931463 104.53492,-56.931463c3.393991,0 38.012698,74.765416 38.012698,82.310549c0,3.429606 -26.473129,12.346582 -59.055442,19.891716c-33.261111,7.545134 -82.13458,21.94948 -109.965305,31.552377c-66.522222,22.635401 -73.310204,22.635401 -56.340249,-1.371842z" id="svg_11"/>
   <path d="m10808.128405,4162.289464c-11.539569,-9.602897 -28.509524,-28.808692 -36.655102,-42.527117c-8.824376,-14.404346 -38.012698,-57.617385 -65.164625,-96.714895c-28.509524,-41.155275 -50.909864,-81.624628 -53.625056,-96.028974c-2.715193,-13.718425 -1.357596,-65.162518 3.393991,-114.548848c8.145578,-91.227525 6.109184,-117.292533 -14.93356,-207.148216c-6.109184,-24.007244 -8.145578,-43.213038 -4.751587,-43.213038c2.715193,0 29.188322,15.776189 58.376644,34.981983c73.310204,48.014487 179.20272,157.761886 236.221767,244.873884l46.837074,70.649888l-4.072789,54.187778c-4.072789,66.534361 -12.218367,80.252786 -87.564965,155.704122l-56.340249,56.245542l-21.721542,-16.46211z" id="svg_12"/>
   <path d="m6787.606779,3584.743776c-114.716893,-11.660661 -232.148978,-35.667905 -247.761336,-50.758172c-9.503175,-9.602897 69.237414,-160.505571 124.220067,-239.386514c56.340249,-79.566864 150.014398,-179.711366 221.967005,-236.642829c29.86712,-24.007244 61.091836,-50.758172 68.558616,-59.675148c21.042744,-23.321322 240.294556,-399.892085 323.107934,-554.224365c74.6678,-139.242013 198.887867,-390.975109 224.682198,-454.079864c44.121882,-108.375557 80.098185,-165.30702 146.620407,-232.527302c45.479478,-45.956723 69.916213,-64.476597 110.644104,-84.368313c65.164625,-31.552377 101.140929,-35.667905 175.129931,-21.94948c69.916213,13.718425 81.455782,24.007244 81.455782,75.451337c0,58.989227 -19.006349,122.779903 -122.183673,415.668274c-19.685147,54.8737 -40.727891,124.151745 -46.837074,154.33228l-11.539569,54.187778l-81.455782,43.89896c-171.73594,93.97121 -388.27256,241.444278 -460.903965,314.15193c-72.631405,73.393573 -101.140929,148.158989 -119.46848,306.606796c-11.539569,104.94595 -21.721542,133.754643 -104.53492,295.632056c-42.085487,83.682392 -88.243764,180.397287 -101.819727,215.379271l-25.115533,63.104754l-65.843424,-1.371842c-35.976304,0 -76.025396,-2.057764 -88.922562,-3.429606z" id="svg_13"/>
   <path d="m7002.785802,3584.743776c-2.036395,-3.429606 -0.678798,-11.660661 2.036395,-19.205795c4.072789,-10.288819 16.291156,-15.776189 51.588662,-22.635401c25.794331,-4.801449 129.650453,-28.808692 230.112583,-53.501857c415.424487,-101.516344 448.0068,-106.317793 779.260312,-105.631872c137.796031,0.685921 252.512923,-1.371842 254.549318,-3.429606c13.575964,-13.718425 -40.049093,-17.148031 -271.519272,-17.148031c-326.501925,0 -347.544669,2.743685 -748.714394,99.45858c-287.810429,69.278046 -274.913263,66.534361 -274.913263,51.444093c0,-30.866456 25.794331,-46.642645 131.008049,-81.624628c131.686847,-43.213038 219.930611,-65.848439 340.756687,-86.426077c217.215418,-37.039747 395.73934,-39.097511 643.500676,-6.859212c80.776984,10.97474 149.3356,17.148031 152.050793,14.404346c12.218367,-12.346582 -23.079138,-20.577637 -171.73594,-39.097511c-352.975054,-43.213038 -658.434236,-12.346582 -986.293757,100.144502c-39.370295,13.032504 -71.952607,22.635401 -73.310204,21.94948c-1.357596,-1.371842 7.46678,-21.263559 19.006349,-44.584881c23.079138,-46.642645 21.721542,-45.956723 101.140929,-52.815936c27.830725,-2.057764 141.190022,-22.635401 251.834125,-45.270802c228.754987,-46.642645 338.720292,-56.931463 481.26791,-47.328566c92.995351,6.173291 128.971654,13.032504 306.816778,58.303306c124.220067,31.552377 147.978003,35.667905 147.978003,24.007244c0,-7.545134 -12.897165,-11.660661 -193.457482,-58.303306c-269.482878,-69.278046 -411.351698,-68.592124 -773.829926,6.173291c-151.371994,31.552377 -266.767685,49.38633 -273.555667,41.841196c-2.036395,-2.057764 2.715193,-17.833952 10.860771,-34.296062c11.539569,-24.693165 18.327551,-30.866456 32.582313,-30.866456c9.503175,0 69.916213,-10.288819 133.723242,-23.321322c192.778683,-39.097511 273.555667,-47.328566 462.94036,-47.328566c175.808729,0 245.724942,4.801449 458.188772,33.610141c160.875169,21.94948 211.785032,32.92422 272.198071,57.617385c57.019047,24.007244 53.625056,23.321322 53.625056,10.97474c0,-12.346582 -59.73424,-41.841196 -113.359296,-55.559621c-21.721542,-6.173291 -90.958956,-17.833952 -154.765985,-27.43685c-243.009749,-34.981983 -311.568365,-40.469353 -509.098636,-40.469353c-210.427436,-0.685921 -271.519272,5.48737 -481.26791,48.014487c-63.128231,13.032504 -118.110884,23.321322 -122.183673,23.321322c-4.072789,0 18.327551,-26.065007 50.231065,-58.303306c99.783333,-101.516344 169.699545,-126.209509 373.339,-131.696879c153.408389,-4.115527 226.718592,3.429606 557.972105,59.675148c412.030496,69.278046 425.60646,69.278046 772.47233,-6.859212c84.170974,-18.519874 168.341949,-35.667905 186.6695,-38.41159l33.939909,-4.115527l-20.363945,21.94948c-27.151927,29.494614 -113.359296,99.45858 -159.517573,128.953194c-57.019047,37.725668 -131.686847,64.476597 -322.429136,117.978454c-185.311903,52.130015 -218.573014,64.476597 -199.566665,72.021731c12.897165,4.801449 302.743989,-73.393573 401.848523,-108.375557c84.170974,-29.494614 151.371994,-69.278046 228.754987,-135.812406c35.297505,-30.180535 78.061791,-65.848439 93.674149,-79.566864l29.86712,-25.379086l82.13458,-2.743685l82.13458,-3.429606l-67.20102,73.393573c-89.60136,98.772659 -131.686847,136.498328 -198.887867,181.083208c-92.995351,61.046991 -185.990702,95.343053 -367.229816,134.440564c-63.128231,13.718425 -99.104534,24.693165 -101.140929,30.866456c-4.072789,12.346582 36.655102,6.859212 160.875169,-21.263559c249.797731,-56.245542 344.829476,-114.548848 552.541719,-339.531016c44.121882,-48.014487 62.449433,-63.790676 76.025396,-63.790676c11.539569,0 16.969955,-3.429606 16.969955,-11.660661c0,-9.602897 -9.503175,-10.288819 -101.140929,-6.173291c-148.656802,6.859212 -250.476529,20.577637 -419.497276,58.989227c-200.924262,45.270802 -262.016098,54.8737 -356.369045,54.8737c-80.098185,0 -234.864171,-16.46211 -245.046143,-26.750929c-2.715193,-2.743685 19.006349,-8.916976 48.873469,-13.718425c29.86712,-4.115527 124.220067,-25.379086 209.06984,-45.956723c310.210769,-75.451337 251.834125,-67.906203 540.323352,-67.906203c186.6695,0 255.906914,-2.057764 255.906914,-7.545134c0,-12.346582 -78.061791,-17.148031 -281.701245,-17.833952c-215.179023,-0.685921 -228.754987,0.685921 -471.764736,59.675148c-99.104534,24.007244 -209.06984,48.700408 -244.367345,54.187778c-35.297505,6.173291 -84.170974,14.404346 -108.607709,18.519874c-40.049093,6.859212 -57.697845,5.48737 -190.063491,-16.46211c-80.098185,-13.718425 -162.232765,-26.750929 -181.239114,-29.494614c-19.685147,-2.057764 -33.939909,-6.859212 -31.903515,-10.288819c2.036395,-3.429606 21.042744,-10.97474 42.085487,-17.148031c21.042744,-6.173291 99.104534,-35.667905 173.772334,-65.848439c157.481178,-63.104754 232.827776,-86.426077 353.653852,-111.119242c271.519272,-54.187778 517.244214,-77.509101 699.840925,-65.848439c82.813378,5.48737 234.864171,25.379086 296.634805,38.41159c13.575964,2.743685 18.327551,1.371842 18.327551,-6.173291c0,-13.032504 -33.261111,-21.263559 -156.123582,-38.41159c-138.474829,-19.205795 -243.688547,-24.007244 -373.339,-15.090267c-314.962356,20.577637 -580.372445,72.707652 -790.799881,155.018201c-171.73594,67.906203 -219.930611,85.740156 -259.979703,96.028974c-35.297505,9.602897 -38.012698,8.916976 -104.53492,-13.718425c-75.346598,-26.065007 -80.098185,-27.43685 -80.098185,-16.46211c0,3.429606 17.648753,14.404346 39.370295,24.007244c21.042744,8.916976 44.80068,19.891716 52.26746,23.321322c8.824376,4.801449 -19.685147,5.48737 -84.849773,2.743685c-206.354647,-8.231055 -346.187072,24.693165 -439.861221,104.94595c-19.685147,17.148031 -37.3339,29.494614 -39.370295,27.43685c-2.036395,-2.057764 -0.678798,-18.519874 2.715193,-37.039747c4.072789,-17.833952 12.218367,-70.649888 18.327551,-117.292533c23.757936,-183.140972 54.303854,-229.783617 240.973354,-362.852338c77.382993,-55.559621 202.960656,-134.440564 300.707594,-188.628342c95.031745,-53.501857 187.348298,-85.740156 329.895916,-115.234769c92.995351,-19.205795 121.504874,-21.94948 240.973354,-24.007244c75.346598,-1.371842 185.990702,-8.231055 246.40374,-14.404346c114.716893,-13.032504 190.742289,-10.288819 307.495576,11.660661c41.406689,7.545134 42.764285,8.916976 23.757936,14.404346c-10.860771,3.429606 -128.971654,8.916976 -261.3373,12.346582c-155.444783,4.115527 -259.979703,9.602897 -295.277209,16.46211c-367.229816,67.220282 -672.688997,211.263743 -841.030946,396.462479l-45.479478,50.072251l23.757936,-48.014487c33.261111,-65.848439 76.025396,-117.978454 126.93526,-157.075965c125.577664,-96.028974 328.53832,-190.686106 463.619158,-218.808877c61.770634,-12.346582 71.273809,-29.494614 12.897165,-23.321322c-92.995351,9.602897 -303.422787,98.086738 -425.60646,178.339523c-69.237414,45.956723 -137.796031,110.43332 -170.378343,159.81965c-36.655102,56.245542 -133.044443,299.061662 -122.862471,309.350481c8.145578,8.231055 23.757936,-13.718425 38.012698,-54.8737c22.40034,-63.104754 27.151927,-62.418833 27.151927,0.685921c0,30.866456 2.715193,56.245542 6.787982,56.245542c7.46678,0 11.539569,-24.693165 16.291156,-94.657132c4.072789,-65.162518 22.40034,-96.028974 98.425736,-173.538075c196.851473,-198.917161 607.524372,-358.736811 961.178224,-373.827078c63.128231,-2.743685 85.528571,-2.057764 78.061791,3.429606c-5.430385,4.115527 -18.327551,7.545134 -27.830725,7.545134c-19.685147,0 -243.688547,36.353826 -318.356347,52.130015c-325.144329,66.534361 -458.188772,152.274516 -676.082988,435.55999c-68.558616,89.169762 -80.098185,107.003714 -71.273809,111.805163c8.145578,5.48737 19.685147,-6.173291 67.879818,-70.649888c64.485827,-85.054234 50.231065,-78.880943 200.245463,-83.682392c101.140929,-3.429606 177.166325,-11.660661 343.47188,-36.353826c416.103285,-60.361069 472.443534,-67.220282 564.760087,-64.476597c87.564965,2.057764 115.395691,-5.48737 63.128231,-17.148031c-65.164625,-14.404346 -228.754987,-0.685921 -543.038545,45.956723c-306.816778,45.270802 -464.976754,61.732912 -455.47358,46.642645c12.218367,-20.577637 366.551018,-136.498328 517.923012,-170.108469c40.727891,-8.916976 92.316553,-11.660661 226.039794,-12.346582l173.093536,-1.371842l103.177324,-25.379086c107.250113,-26.750929 179.20272,-38.41159 234.864171,-39.097511c25.115533,0 31.903515,-2.743685 31.903515,-10.97474c0,-19.205795 -125.577664,-8.916976 -247.761336,20.577637c-132.365645,32.238298 -188.705894,38.41159 -354.332651,38.41159c-151.371994,0 -171.73594,3.429606 -348.223467,54.8737c-192.778683,56.931463 -357.726641,119.350296 -363.157027,137.87017c-3.393991,9.602897 -10.860771,13.032504 -31.224716,13.032504c-14.254762,0 -26.473129,-2.057764 -26.473129,-4.801449c0.678798,-14.404346 42.085487,-53.501857 76.025396,-72.707652c21.721542,-12.346582 63.807029,-39.097511 95.031745,-60.361069c63.807029,-43.89896 116.753287,-65.162518 249.118932,-98.772659c222.645803,-56.245542 459.546369,-91.913447 686.264961,-103.574108c102.498525,-4.801449 196.851473,4.115527 265.410089,24.693165c46.837074,14.404346 67.20102,17.148031 67.20102,8.231055c0,-7.545134 -40.049093,-25.379086 -91.637754,-40.469353c-33.939909,-9.602897 -67.20102,-11.660661 -194.815078,-10.97474c-218.573014,1.371842 -375.375394,19.891716 -626.530721,74.079494c-193.457482,41.841196 -305.459181,78.880943 -365.193421,120.722139l-21.721542,15.776189l13.575964,-15.776189c7.46678,-8.916976 30.545918,-27.43685 50.909864,-41.841196c116.753287,-80.252786 257.943309,-124.837666 553.220518,-174.223996c264.731291,-44.584881 416.782083,-41.841196 619.742739,10.288819c59.73424,15.090267 86.207369,19.205795 90.958956,14.404346c9.503175,-9.602897 -7.46678,-16.46211 -92.995351,-39.783432c-50.909864,-13.718425 -182.596711,-35.667905 -226.039794,-37.725668c-9.503175,0 -8.824376,-1.371842 2.036395,-6.173291c40.049093,-17.148031 236.900565,0.685921 410.6729,37.725668c58.376644,12.346582 124.898865,37.725668 117.432085,45.270802c-2.715193,2.743685 -32.582313,15.090267 -66.522222,26.750929c-156.123582,55.559621 -426.285258,205.090452 -462.261561,256.534545c-19.006349,28.122771 3.393991,17.833952 82.813378,-36.353826c104.53492,-71.335809 300.707594,-170.79439 405.921312,-206.462295c44.80068,-15.090267 86.207369,-27.43685 91.637754,-27.43685c17.648753,0 125.577664,54.8737 118.789682,61.046991c-15.612358,14.404346 -259.979703,105.631872 -342.793081,128.267273c-172.414738,46.642645 -185.311903,50.758172 -195.493876,61.046991c-9.503175,8.916976 -8.824376,10.288819 2.715193,10.288819c33.939909,0 302.743989,-78.880943 397.096936,-117.292533c171.057142,-68.592124 173.772334,-69.278046 200.924262,-57.617385c12.897165,5.48737 23.079138,12.346582 23.079138,15.090267c0,2.743685 -23.757936,17.148031 -52.946258,30.866456c-72.631405,34.981983 -216.53662,163.249256 -182.596711,163.249256c4.751587,0 38.012698,-26.065007 74.6678,-58.303306c66.522222,-58.303306 84.170974,-69.963967 155.444783,-101.516344l37.3339,-17.148031l35.297505,27.43685c19.006349,14.404346 34.618707,29.494614 34.618707,32.238298c0,9.602897 -132.365645,68.592124 -214.500225,95.343053c-74.6678,24.693165 -104.53492,42.527117 -71.273809,42.527117c24.436735,0 156.123582,-45.956723 234.864171,-82.310549l74.6678,-34.296062l31.224716,34.981983c45.479478,49.38633 121.504874,187.2565 121.504874,219.494798c0,38.41159 -25.794331,182.455051 -42.085487,235.270987c-27.830725,91.227525 -100.462131,179.025445 -221.288207,270.938891c-48.873469,37.039747 -62.449433,43.89896 -99.783333,49.38633c-23.079138,4.115527 -57.697845,6.173291 -75.346598,4.801449l-33.261111,-2.057764l23.079138,-13.718425c187.348298,-113.177005 294.598411,-222.238483 331.932311,-339.531016c27.151927,-83.682392 57.019047,-213.321507 52.26746,-224.982168c-6.787982,-17.833952 -12.218367,-4.115527 -46.837074,124.837666c-16.969955,63.790676 -39.370295,130.325036 -49.552267,148.84491c-48.194671,90.541604 -142.547618,176.28176 -282.380043,258.592309l-85.528571,49.38633l-52.946258,0c-78.740589,0 -80.098185,-6.859212 -8.145578,-43.89896c122.862471,-63.104754 171.057142,-104.260029 289.846823,-243.502042c92.316553,-108.375557 122.862471,-150.902674 169.699545,-241.444278c43.443084,-82.310549 47.515873,-95.343053 29.188322,-95.343053c-9.503175,0 -15.612358,7.545134 -21.721542,26.065007c-10.860771,33.610141 -61.091836,123.465824 -99.783333,179.025445c-72.631405,104.260029 -214.500225,255.162703 -281.022447,299.747584c-97.746938,65.848439 -257.943309,131.696879 -302.743989,125.523588c-14.254762,-2.743685 -10.860771,-6.859212 27.151927,-34.296062c23.079138,-17.833952 80.776984,-53.501857 127.614058,-80.252786c46.837074,-26.750929 110.644104,-63.104754 142.547618,-80.938707c42.085487,-24.693165 75.346598,-51.444093 125.577664,-102.202265c61.770634,-62.418833 73.989002,-79.566864 134.40204,-186.570578c64.485827,-115.234769 72.631405,-132.3828 59.055442,-132.3828c-8.824376,0 -38.012698,45.270802 -84.849773,130.325036c-97.746938,179.025445 -129.650453,207.148216 -405.921312,362.166417c-42.085487,23.321322 -103.177324,63.790676 -135.759636,89.855683l-59.055442,46.642645l-69.237414,8.231055c-135.759636,16.46211 -295.956007,8.916976 -382.163376,-17.148031c-29.188322,-8.916976 -53.625056,-9.602897 -166.305554,-3.429606c-72.631405,4.115527 -213.821427,7.545134 -313.60476,7.545134c-157.481178,0 -181.917913,1.371842 -181.917913,10.288819c0,8.916976 19.685147,10.288819 131.008049,10.97474c154.087187,1.371842 141.86882,4.801449 -107.928911,30.180535c-198.209069,20.577637 -219.930611,24.007244 -219.930611,31.552377c0,9.602897 44.121882,7.545134 234.185372,-10.97474c247.761336,-24.007244 272.876869,-25.379086 261.3373,-18.519874c-21.042744,13.032504 -233.506574,45.270802 -352.975054,52.815936c-68.558616,4.801449 -323.786732,-7.545134 -347.544669,-16.46211c-10.860771,-4.115527 2.715193,-10.97474 60.413038,-30.180535c168.341949,-56.245542 293.919612,-78.195022 495.522672,-83.682392c148.656802,-4.801449 185.311903,-8.231055 185.311903,-18.519874c0,-5.48737 -48.873469,-6.173291 -171.057142,-3.429606c-253.87052,6.173291 -359.763036,27.43685 -626.530721,123.465824c-14.93356,5.48737 -65.164625,11.660661 -112.0017,14.404346c-46.837074,2.743685 -122.862471,8.916976 -169.699545,14.404346c-93.674149,10.97474 -146.620407,13.032504 -151.371994,5.48737zm1308.044095,-560.397657c200.245463,-98.772659 232.827776,-104.94595 621.779134,-113.862927c338.041494,-7.545134 403.20612,-12.346582 505.025847,-38.41159c75.346598,-19.205795 112.680498,-37.039747 112.680498,-54.187778c0,-16.46211 -16.291156,-19.205795 -44.80068,-6.859212c-56.340249,23.321322 -162.911563,45.270802 -253.191722,52.130015c-50.909864,3.429606 -215.857822,8.916976 -367.229816,12.346582c-358.40544,8.231055 -390.987752,14.404346 -581.051243,107.689635c-48.873469,24.007244 -92.995351,48.014487 -97.746938,54.187778c-9.503175,10.97474 -4.751587,30.866456 7.46678,30.866456c4.072789,0 47.515873,-19.891716 97.06814,-43.89896zm-1046.706795,-4.801449c2.036395,-20.577637 4.751587,-52.130015 4.751587,-71.335809c0.678798,-24.693165 8.824376,-50.758172 27.830725,-92.599368c14.254762,-31.552377 25.115533,-58.989227 23.757936,-60.361069c-16.291156,-16.46211 -63.807029,76.823179 -71.952607,141.299776c-8.824376,70.649888 -7.46678,126.209509 2.715193,123.465824c4.072789,-2.057764 10.181973,-19.891716 12.897165,-40.469353zm1033.80963,-78.195022c127.614058,-63.790676 183.275509,-87.797919 224.0034,-97.400817c56.340249,-13.032504 80.098185,-13.032504 678.119383,-6.859212c83.492176,0.685921 122.183673,-0.685921 124.220067,-6.173291c3.393991,-10.288819 -243.009749,-19.205795 -534.214169,-19.891716c-293.240814,0 -276.27086,-4.115527 -515.886618,116.606612c-100.462131,50.758172 -183.954307,95.343053 -187.348298,100.144502c-12.218367,19.891716 50.231065,-5.48737 211.106234,-86.426077zm-959.820628,-4.801449c6.109184,-93.285289 26.473129,-133.754643 121.504874,-245.559805c42.764285,-50.072251 54.303854,-68.592124 44.121882,-68.592124c-8.145578,0 -73.989002,67.220282 -105.892516,107.003714c-60.413038,76.823179 -91.637754,172.852154 -82.13458,253.104939c5.430385,46.642645 18.327551,21.263559 22.40034,-45.956723z" id="svg_14"/>
   <path d="m8333.909035,3495.574014c4.072789,-1.371842 12.218367,-1.371842 16.969955,0c4.072789,2.057764 0.678798,3.429606 -8.824376,3.429606c-9.503175,0 -12.897165,-1.371842 -8.145578,-3.429606z" id="svg_15"/>
   <path d="m9631.771157,3425.610047c0,-2.057764 14.93356,-15.090267 31.903515,-28.122771c86.207369,-65.162518 147.299205,-137.87017 182.596711,-216.065192c10.181973,-21.94948 26.473129,-82.996471 36.655102,-135.126485c10.860771,-52.815936 20.363945,-97.400817 22.40034,-98.772659c2.036395,-2.057764 7.46678,8.231055 11.539569,21.94948c6.109184,17.833952 7.46678,50.758172 4.751587,104.260029c-3.393991,72.707652 -5.430385,82.996471 -27.830725,127.581351c-16.291156,33.610141 -46.158276,74.079494 -92.316553,126.209509c-37.3339,41.841196 -73.989002,79.566864 -80.776984,82.996471c-14.93356,8.231055 -88.922562,20.577637 -88.922562,15.090267z" id="svg_16"/>
   <path d="m9898.538842,3413.263465c-16.291156,-1.371842 -29.188322,-6.173291 -29.188322,-9.602897c0,-3.429606 21.042744,-37.039747 47.515873,-73.393573c25.794331,-36.353826 59.73424,-92.599368 75.346598,-124.151745c23.757936,-50.072251 29.188322,-56.245542 34.618707,-45.270802c4.072789,6.859212 8.824376,32.92422 10.181973,57.617385c2.715193,37.725668 -0.678798,56.931463 -18.327551,113.862927c-11.539569,37.725668 -26.473129,72.707652 -32.582313,77.509101c-10.181973,8.231055 -27.830725,8.916976 -87.564965,3.429606z" id="svg_17"/>
   <path d="m9767.530794,3406.404253c0,-3.429606 25.794331,-34.981983 57.019047,-70.649888c31.903515,-35.667905 66.522222,-80.252786 78.061791,-99.45858c24.436735,-41.155275 41.406689,-102.888187 41.406689,-152.274516c0,-19.891716 2.715193,-36.353826 5.430385,-36.353826c2.715193,0 18.327551,13.032504 33.939909,29.494614l27.830725,28.808692l-25.794331,59.675148c-14.254762,32.92422 -33.261111,71.335809 -42.085487,85.740156c-29.86712,49.38633 -102.498525,146.101225 -114.716893,152.960437c-14.93356,8.231055 -61.091836,8.916976 -61.091836,2.057764z" id="svg_18"/>
  </g>
 </g>
</svg>